<svg version="1.1" viewBox="0 0 512 513.11" xmlns="http://www.w3.org/2000/svg" xmlns:xlink="http://www.w3.org/1999/xlink" fill-rule="evenodd" clip-rule="evenodd" overflow="hidden"><style>
.MsftOfcThm_Background1_Fill {
 fill:#FFFFFF; 
}
</style>
<path d=" M 210.48 160.8 C 210.48 146.19 222.32 134.34 236.93 134.34 C 251.54 134.34 263.38 146.19 263.38 160.8 L 263.38 271.68 L 336.72 303.92 C 350.08 309.8 356.14 325.39 350.26 338.74 C 344.38 352.09 328.79 358.15 315.44 352.28 L 227.64 313.68 C 217.61 309.92 210.48 300.25 210.48 288.91 L 210.48 160.8 Z M 5.4 168.54 C 4.64 166.29 4.17 163.9 4.04 161.41 L 0.04 87.92 C -0.71 73.37 10.49 60.97 25.04 60.23 C 39.59 59.48 51.99 70.68 52.73 85.23 L 53.47 98.83 C 64.368 84.8061 76.7053 71.9626 90.28 60.51 C 108.25 45.35 128.66 32.42 151.29 22.33 C 215.96 -6.52 286.14 -6.45 347.31 16.98 C 407.86 40.18 459.67 86.25 488.71 149.81 C 489.48 151.19 490.13 152.65 490.65 154.17 C 518.51 218.23 518.18 287.5 495.02 347.98 C 471.82 408.53 425.75 460.34 362.19 489.37 C 358.253 491.577 353.813 492.73 349.3 492.72 C 334.69 492.72 322.85 480.88 322.85 466.27 C 322.85 454.77 330.19 444.99 340.44 441.35 C 348.13 437.82 355.5 433.88 362.53 429.55 C 363.33 428.89 364.18 428.27 365.08 427.69 C 376.41 420.37 387.18 411.99 396.92 402.65 C 397.56 402.04 398.23 401.46 398.92 400.93 C 419.58 380.43 435.4 355.87 445.63 329.17 C 464.29 280.47 464.4 224.71 441.53 173.45 L 441.52 173.42 C 418.65 122.16 377.13 85 328.5 66.37 C 279.8 47.72 224.04 47.61 172.78 70.47 C 155.302 78.2557 139.008 88.4661 124.38 100.8 C 114.52 109.12 105.58 118.26 97.63 128.09 L 101.08 127.66 C 115.57 125.89 128.76 136.21 130.53 150.7 C 132.3 165.19 121.98 178.38 107.49 180.15 L 34.43 189.15 C 20.77 190.81 8.27 181.74 5.4 168.54 Z M 283.49 511.5 C 304.37 509.16 314.33 484.57 300.95 468.34 C 295.24 461.41 286.56 458 277.66 458.92 C 262.1 460.67 246.53 460.64 230.98 458.79 C 221.64 457.68 212.53 461.51 206.79 468.96 C 194.43 485.39 204.24 508.73 224.61 511.31 C 244.19 513.65 263.89 513.7 283.49 511.5 Z M 114.75 470.83 C 122.67 476.09 132.52 476.69 141.07 472.57 C 159.36 463.51 161.04 438.16 144.08 426.81 C 131.27 418.36 118.94 407.85 108.47 396.65 C 98.89 386.45 83.19 385.4 72.36 394.26 C 61.0688 403.516 59.419 420.173 68.6751 431.464 C 69.0392 431.908 69.4177 432.34 69.81 432.76 C 83.15 446.96 98.47 460.1 114.75 470.83 Z M 10.93 331.97 C 13.85 341.41 21.65 348.29 31.34 350.15 C 50.88 353.78 67.35 335.31 61.47 316.33 C 56.81 301.33 53.98 286.07 52.83 270.4 C 51.47 252.07 32.62 240.78 15.77 248.07 C 5.5 252.72 -0.69 262.86 0.06 274.14 C 1.48 293.8 5.08 313.14 10.93 331.97 Z" stroke="none" stroke-width="1" stroke-dasharray="" stroke-dashoffset="1" fill="#FFFFFF" fill-rule="nonzero" fill-opacity="1"/></svg>